<svg id="Capa_1" enable-background="new 0 0 512.013 512.013" height="512" viewBox="0 0 512.013 512.013" width="512" xmlns="http://www.w3.org/2000/svg"><g><path d="m260.754 87.783c-1.54-.513-3.144-.004-4.746-.007-1.599-.004-3.195-.52-4.731-.007l-180.015 60.014v28.447l180 60c1.538.513 3.149.776 4.746.776s3.208-.264 4.746-.776l180-60v-28.447z" fill="#ffc473"/><path d="m440.754 176.23v-28.447l-180-60c-1.54-.513-3.144-.004-4.746-.007v149.231c1.597 0 3.208-.264 4.746-.776z" fill="#ff9f00"/><path d="m256.008 212.002h-195v221.005c0 6.46 4.131 12.188 10.254 14.224l180 60c1.538.513 3.149.776 4.746.776s3.208-.264 4.746-.776l180-60c6.123-2.036 10.254-7.764 10.254-14.224v-221.005z" fill="#ffc473"/><path d="m440.754 447.23c6.123-2.036 10.254-7.764 10.254-14.224v-221.004h-195v296.005c1.597 0 3.208-.264 4.746-.776z" fill="#ff9f00"/><g><path d="m293.508 4.006c-14.565 0-27.422 5.634-37.5 16.362-10.078-10.728-22.935-16.362-37.5-16.362-29.439 0-52.5 23.094-52.5 52.576 0 31.177 25.721 51.216 61.318 78.951 6.17 4.807 12.549 9.777 19.312 15.187 2.739 2.191 6.055 3.287 9.37 3.287s6.631-1.096 9.37-3.287c6.763-5.41 13.142-10.38 19.312-15.187 35.598-27.735 61.318-47.774 61.318-78.951 0-29.482-23.061-52.576-52.5-52.576z" fill="#ff5e95"/></g><path d="m265.378 150.719c6.763-5.41 13.142-10.38 19.312-15.187 35.598-27.735 61.318-47.773 61.318-78.951 0-29.482-23.061-52.576-52.5-52.576-14.565 0-27.422 5.634-37.5 16.362v133.638c3.315.001 6.631-1.094 9.37-3.286z" fill="#e63950"/><path d="m509.488 243.686-61-90c-3.765-5.64-10.84-8.115-17.227-5.903l-175.254 58.418-175.253-58.418c-6.431-2.197-13.491.264-17.227 5.903l-61 90c-5.533 8.315-1.545 19.481 7.734 22.544l181 60c6.37 2.142 13.456-.249 17.227-5.903l47.52-71.279 47.52 71.279c3.774 5.66 10.864 8.044 17.227 5.903l181-60c9.295-3.069 13.254-14.247 7.733-22.544z" fill="#ffe470"/><path d="m320.754 326.23 181-60c9.296-3.069 13.255-14.247 7.734-22.544l-61-90c-3.765-5.64-10.84-8.115-17.227-5.903l-175.254 58.418v42.847l47.52 71.279c3.774 5.66 10.864 8.044 17.227 5.903z" fill="#ffc473"/></g></svg>